<svg xmlns="http://www.w3.org/2000/svg" xmlns:xlink="http://www.w3.org/1999/xlink" width="300" zoomAndPan="magnify" viewBox="0 0 224.87999 225" height="300" preserveAspectRatio="xMidYMid meet" version="1.0"><defs><clipPath id="4bb91af735"><path d="M 5.453125 5.515625 L 219.089844 5.515625 L 219.089844 219.148438 L 5.453125 219.148438 Z M 5.453125 5.515625 " clip-rule="nonzero"/></clipPath></defs><g clip-path="url(#4bb91af735)"><path fill="#2b4bbc" d="M 219.089844 112.332031 C 219.089844 114.078125 219.046875 115.828125 218.960938 117.574219 C 218.875 119.320312 218.746094 121.0625 218.574219 122.800781 C 218.402344 124.542969 218.191406 126.277344 217.933594 128.003906 C 217.675781 129.734375 217.378906 131.457031 217.039062 133.171875 C 216.695312 134.886719 216.3125 136.589844 215.886719 138.285156 C 215.464844 139.980469 214.996094 141.667969 214.488281 143.339844 C 213.984375 145.011719 213.433594 146.671875 212.84375 148.316406 C 212.257812 149.964844 211.628906 151.59375 210.957031 153.210938 C 210.289062 154.824219 209.582031 156.421875 208.835938 158.003906 C 208.085938 159.582031 207.300781 161.144531 206.476562 162.683594 C 205.652344 164.226562 204.792969 165.746094 203.890625 167.246094 C 202.992188 168.746094 202.058594 170.222656 201.085938 171.675781 C 200.117188 173.128906 199.109375 174.558594 198.070312 175.964844 C 197.027344 177.367188 195.953125 178.746094 194.84375 180.097656 C 193.734375 181.449219 192.59375 182.769531 191.417969 184.066406 C 190.246094 185.363281 189.039062 186.628906 187.804688 187.863281 C 186.566406 189.097656 185.300781 190.304688 184.007812 191.480469 C 182.710938 192.652344 181.386719 193.792969 180.035156 194.902344 C 178.683594 196.011719 177.308594 197.085938 175.902344 198.128906 C 174.5 199.171875 173.070312 200.175781 171.617188 201.148438 C 170.164062 202.117188 168.6875 203.054688 167.1875 203.953125 C 165.6875 204.851562 164.167969 205.710938 162.625 206.535156 C 161.082031 207.359375 159.523438 208.148438 157.941406 208.894531 C 156.363281 209.640625 154.765625 210.351562 153.148438 211.019531 C 151.535156 211.6875 149.902344 212.316406 148.257812 212.90625 C 146.613281 213.496094 144.953125 214.042969 143.28125 214.550781 C 141.605469 215.058594 139.921875 215.523438 138.226562 215.949219 C 136.53125 216.375 134.824219 216.757812 133.109375 217.097656 C 131.394531 217.4375 129.675781 217.738281 127.945312 217.992188 C 126.214844 218.25 124.480469 218.464844 122.742188 218.636719 C 121.003906 218.808594 119.257812 218.933594 117.511719 219.019531 C 115.765625 219.105469 114.019531 219.148438 112.273438 219.148438 C 110.523438 219.148438 108.777344 219.105469 107.03125 219.019531 C 105.285156 218.933594 103.542969 218.808594 101.800781 218.636719 C 100.0625 218.464844 98.328125 218.25 96.597656 217.992188 C 94.867188 217.738281 93.148438 217.4375 91.433594 217.097656 C 89.71875 216.757812 88.011719 216.375 86.316406 215.949219 C 84.621094 215.523438 82.9375 215.058594 81.265625 214.550781 C 79.589844 214.042969 77.933594 213.496094 76.285156 212.90625 C 74.640625 212.316406 73.007812 211.6875 71.394531 211.019531 C 69.777344 210.351562 68.179688 209.640625 66.601562 208.894531 C 65.019531 208.148438 63.460938 207.359375 61.917969 206.535156 C 60.375 205.710938 58.855469 204.851562 57.355469 203.953125 C 55.855469 203.054688 54.378906 202.117188 52.925781 201.148438 C 51.472656 200.175781 50.042969 199.171875 48.640625 198.128906 C 47.234375 197.085938 45.859375 196.011719 44.507812 194.902344 C 43.15625 193.792969 41.832031 192.652344 40.539062 191.480469 C 39.242188 190.304688 37.976562 189.097656 36.738281 187.863281 C 35.503906 186.628906 34.296875 185.363281 33.125 184.066406 C 31.949219 182.769531 30.808594 181.449219 29.699219 180.097656 C 28.589844 178.746094 27.515625 177.367188 26.476562 175.964844 C 25.433594 174.558594 24.425781 173.128906 23.457031 171.675781 C 22.484375 170.222656 21.550781 168.746094 20.652344 167.246094 C 19.753906 165.746094 18.890625 164.226562 18.066406 162.683594 C 17.242188 161.144531 16.457031 159.582031 15.710938 158.003906 C 14.960938 156.421875 14.253906 154.824219 13.585938 153.210938 C 12.914062 151.59375 12.285156 149.964844 11.699219 148.316406 C 11.109375 146.671875 10.5625 145.011719 10.054688 143.339844 C 9.546875 141.667969 9.078125 139.980469 8.65625 138.285156 C 8.230469 136.589844 7.847656 134.886719 7.507812 133.171875 C 7.164062 131.457031 6.867188 129.734375 6.609375 128.003906 C 6.351562 126.277344 6.140625 124.542969 5.96875 122.800781 C 5.796875 121.0625 5.667969 119.320312 5.582031 117.574219 C 5.496094 115.828125 5.453125 114.078125 5.453125 112.332031 C 5.453125 110.582031 5.496094 108.835938 5.582031 107.089844 C 5.667969 105.34375 5.796875 103.601562 5.96875 101.863281 C 6.140625 100.121094 6.351562 98.386719 6.609375 96.660156 C 6.867188 94.929688 7.164062 93.207031 7.507812 91.492188 C 7.847656 89.777344 8.230469 88.074219 8.65625 86.378906 C 9.078125 84.679688 9.546875 82.996094 10.054688 81.324219 C 10.5625 79.652344 11.109375 77.992188 11.699219 76.347656 C 12.285156 74.699219 12.914062 73.070312 13.585938 71.453125 C 14.253906 69.839844 14.960938 68.242188 15.710938 66.660156 C 16.457031 65.082031 17.242188 63.519531 18.066406 61.976562 C 18.890625 60.4375 19.753906 58.914062 20.652344 57.417969 C 21.550781 55.917969 22.484375 54.441406 23.457031 52.988281 C 24.425781 51.535156 25.433594 50.105469 26.476562 48.699219 C 27.515625 47.296875 28.589844 45.917969 29.699219 44.566406 C 30.808594 43.214844 31.949219 41.890625 33.125 40.597656 C 34.296875 39.300781 35.503906 38.035156 36.738281 36.800781 C 37.976562 35.5625 39.242188 34.359375 40.539062 33.183594 C 41.832031 32.011719 43.15625 30.871094 44.507812 29.761719 C 45.859375 28.652344 47.234375 27.574219 48.640625 26.535156 C 50.042969 25.492188 51.472656 24.488281 52.925781 23.515625 C 54.378906 22.542969 55.855469 21.609375 57.355469 20.710938 C 58.855469 19.8125 60.375 18.949219 61.917969 18.125 C 63.460938 17.300781 65.019531 16.515625 66.601562 15.769531 C 68.179688 15.023438 69.777344 14.3125 71.394531 13.644531 C 73.007812 12.976562 74.640625 12.347656 76.285156 11.757812 C 77.933594 11.167969 79.589844 10.621094 81.265625 10.113281 C 82.9375 9.605469 84.621094 9.140625 86.316406 8.714844 C 88.011719 8.289062 89.71875 7.90625 91.433594 7.566406 C 93.148438 7.226562 94.867188 6.925781 96.597656 6.667969 C 98.328125 6.414062 100.0625 6.199219 101.800781 6.027344 C 103.542969 5.855469 105.285156 5.726562 107.03125 5.640625 C 108.777344 5.554688 110.523438 5.515625 112.273438 5.515625 C 114.019531 5.515625 115.765625 5.554688 117.511719 5.640625 C 119.257812 5.726562 121.003906 5.855469 122.742188 6.027344 C 124.480469 6.199219 126.214844 6.414062 127.945312 6.667969 C 129.675781 6.925781 131.394531 7.226562 133.109375 7.566406 C 134.824219 7.90625 136.53125 8.289062 138.226562 8.714844 C 139.921875 9.140625 141.605469 9.605469 143.28125 10.113281 C 144.953125 10.621094 146.613281 11.167969 148.257812 11.757812 C 149.902344 12.347656 151.535156 12.976562 153.148438 13.644531 C 154.765625 14.3125 156.363281 15.023438 157.941406 15.769531 C 159.523438 16.515625 161.082031 17.300781 162.625 18.125 C 164.167969 18.949219 165.6875 19.8125 167.1875 20.710938 C 168.6875 21.609375 170.164062 22.542969 171.617188 23.515625 C 173.070312 24.488281 174.5 25.492188 175.902344 26.535156 C 177.308594 27.574219 178.683594 28.652344 180.035156 29.761719 C 181.386719 30.871094 182.710938 32.011719 184.007812 33.183594 C 185.300781 34.359375 186.566406 35.5625 187.804688 36.800781 C 189.039062 38.035156 190.246094 39.300781 191.417969 40.597656 C 192.59375 41.890625 193.734375 43.214844 194.84375 44.566406 C 195.953125 45.917969 197.027344 47.296875 198.070312 48.699219 C 199.109375 50.105469 200.117188 51.535156 201.085938 52.988281 C 202.058594 54.441406 202.992188 55.917969 203.890625 57.417969 C 204.792969 58.914062 205.652344 60.4375 206.476562 61.976562 C 207.300781 63.519531 208.085938 65.082031 208.835938 66.660156 C 209.582031 68.242188 210.289062 69.839844 210.957031 71.453125 C 211.628906 73.070312 212.257812 74.699219 212.84375 76.347656 C 213.433594 77.992188 213.984375 79.652344 214.488281 81.324219 C 214.996094 82.996094 215.464844 84.679688 215.886719 86.378906 C 216.3125 88.074219 216.695312 89.777344 217.039062 91.492188 C 217.378906 93.207031 217.675781 94.929688 217.933594 96.660156 C 218.191406 98.386719 218.402344 100.121094 218.574219 101.863281 C 218.746094 103.601562 218.875 105.34375 218.960938 107.089844 C 219.046875 108.835938 219.089844 110.582031 219.089844 112.332031 Z M 219.089844 112.332031 " fill-opacity="1" fill-rule="nonzero"/></g><path fill="#eaeaea" d="M 183.796875 66.273438 L 136.027344 104.128906 L 184.90625 142.925781 L 184.90625 70.800781 C 184.9375 69.195312 184.566406 67.683594 183.796875 66.273438 Z M 183.796875 66.273438 " fill-opacity="1" fill-rule="nonzero"/><path fill="#eaeaea" d="M 40.746094 66.273438 C 39.976562 67.683594 39.609375 69.195312 39.636719 70.800781 L 39.636719 142.925781 L 88.515625 104.128906 Z M 40.746094 66.273438 " fill-opacity="1" fill-rule="nonzero"/><path fill="#eaeaea" d="M 119.109375 117.542969 C 118.195312 118.394531 117.152344 119.042969 115.984375 119.488281 C 114.816406 119.929688 113.605469 120.136719 112.355469 120.109375 C 111.03125 120.121094 109.75 119.890625 108.507812 119.421875 C 107.269531 118.949219 106.160156 118.265625 105.179688 117.375 L 94.070312 108.828125 L 39.636719 151.726562 L 39.636719 153.863281 C 39.636719 154.542969 39.703125 155.214844 39.835938 155.878906 C 39.964844 156.546875 40.164062 157.191406 40.421875 157.820312 C 40.683594 158.445312 41 159.042969 41.378906 159.605469 C 41.753906 160.171875 42.183594 160.695312 42.664062 161.175781 C 43.144531 161.652344 43.667969 162.082031 44.230469 162.460938 C 44.796875 162.835938 45.390625 163.15625 46.019531 163.414062 C 46.644531 163.675781 47.292969 163.871094 47.957031 164.003906 C 48.625 164.136719 49.296875 164.203125 49.976562 164.203125 L 174.566406 164.203125 C 175.246094 164.203125 175.917969 164.136719 176.585938 164.003906 C 177.25 163.871094 177.898438 163.675781 178.523438 163.414062 C 179.152344 163.15625 179.746094 162.835938 180.3125 162.460938 C 180.878906 162.082031 181.398438 161.652344 181.878906 161.175781 C 182.359375 160.695312 182.789062 160.171875 183.164062 159.605469 C 183.542969 159.042969 183.859375 158.445312 184.121094 157.820312 C 184.378906 157.191406 184.578125 156.546875 184.710938 155.878906 C 184.839844 155.214844 184.90625 154.542969 184.90625 153.863281 L 184.90625 151.726562 L 130.472656 108.484375 Z M 119.109375 117.542969 " fill-opacity="1" fill-rule="nonzero"/><path fill="#eaeaea" d="M 99.453125 104.128906 L 109.539062 112.160156 C 109.867188 112.488281 110.246094 112.742188 110.675781 112.921875 C 111.101562 113.097656 111.550781 113.1875 112.015625 113.1875 C 112.480469 113.1875 112.925781 113.097656 113.355469 112.921875 C 113.785156 112.742188 114.164062 112.488281 114.492188 112.160156 L 124.75 103.617188 L 130.300781 99.257812 L 178.667969 60.886719 C 177.3125 60.277344 175.886719 59.964844 174.398438 59.949219 L 49.976562 59.949219 C 48.511719 59.953125 47.113281 60.269531 45.789062 60.886719 L 94.070312 99.511719 Z M 99.453125 104.128906 " fill-opacity="1" fill-rule="nonzero"/></svg>